<?xml version="1.0" standalone="no"?>
<!DOCTYPE svg PUBLIC "-//W3C//DTD SVG 20010904//EN"
 "http://www.w3.org/TR/2001/REC-SVG-20010904/DTD/svg10.dtd">
<svg version="1.0" xmlns="http://www.w3.org/2000/svg"
 width="512.000000pt" height="512.000000pt" viewBox="0 0 512.000000 512.000000"
 preserveAspectRatio="xMidYMid meet">
<metadata>
Created by potrace 1.11, written by Peter Selinger 2001-2013
</metadata>
<g transform="translate(0.000000,512.000000) scale(0.100000,-0.100000)"
fill="#000000" stroke="none">
<path d="M2133 5105 c-38 -16 -56 -48 -76 -140 -19 -86 -64 -374 -73 -471 -3
-40 -9 -76 -13 -81 -3 -5 -40 -22 -81 -37 -41 -16 -108 -44 -148 -63 l-73 -34
-72 55 c-355 275 -424 326 -448 331 -62 14 -165 -60 -379 -275 -265 -266 -331
-353 -316 -415 4 -14 52 -82 109 -152 56 -71 142 -181 190 -246 l89 -117 -40
-83 c-22 -45 -50 -111 -62 -147 -13 -36 -26 -69 -30 -73 -4 -4 -97 -21 -206
-38 -404 -61 -436 -67 -460 -90 -44 -41 -45 -55 -42 -475 3 -365 5 -401 21
-425 10 -15 30 -32 45 -38 15 -6 153 -29 307 -51 154 -22 292 -43 306 -46 23
-4 30 -16 49 -72 12 -37 43 -111 67 -164 54 -114 65 -80 -98 -289 -215 -274
-229 -296 -229 -344 0 -61 55 -132 264 -340 305 -305 349 -339 416 -327 13 3
133 87 265 187 132 99 245 184 251 188 6 3 56 -13 110 -37 54 -24 123 -51 152
-60 28 -10 52 -22 52 -27 0 -9 45 -314 54 -364 2 -11 12 -76 22 -144 20 -136
39 -174 95 -188 16 -5 206 -8 423 -7 438 1 433 0 461 67 13 32 48 201 60 290
4 27 8 58 10 69 3 11 7 46 11 77 3 31 7 63 9 71 1 8 6 43 10 77 l7 61 61 22
c34 12 102 40 151 63 74 34 91 38 108 28 10 -6 120 -91 244 -188 207 -162 229
-176 272 -180 43 -4 52 -1 120 46 102 72 411 381 520 520 34 43 42 61 42 95 0
48 0 49 -138 221 -57 72 -109 137 -115 145 -66 83 -127 177 -123 190 2 8 28
69 56 135 28 66 55 129 60 141 6 16 20 23 62 28 46 6 339 50 408 61 14 3 56 9
93 14 74 11 107 27 133 67 15 22 17 70 17 427 0 503 9 477 -173 502 -25 3 -98
15 -380 58 -165 26 -143 8 -205 165 -20 51 -48 113 -60 139 -28 55 -48 20 166
294 83 107 159 211 170 232 23 43 20 82 -8 127 -48 76 -282 320 -500 522 -73
67 -117 88 -161 74 -10 -4 -133 -92 -272 -196 l-252 -189 -57 28 c-31 16 -96
43 -146 62 -49 18 -91 34 -93 34 -3 2 -24 135 -62 385 -17 113 -33 218 -36
235 -6 37 -30 64 -71 81 -47 20 -794 19 -840 -1z m637 -1716 c286 -69 536
-314 614 -604 22 -81 31 -272 17 -362 -36 -229 -182 -449 -387 -583 -77 -50
-204 -102 -295 -119 -81 -15 -302 -8 -379 13 -297 81 -540 327 -611 623 -30
121 -29 305 0 418 65 245 243 458 474 566 165 76 375 94 567 48z"/>
</g>
</svg>
