<?xml version="1.0" standalone="no"?>
<!DOCTYPE svg PUBLIC "-//W3C//DTD SVG 20010904//EN"
 "http://www.w3.org/TR/2001/REC-SVG-20010904/DTD/svg10.dtd">
<svg version="1.0" xmlns="http://www.w3.org/2000/svg"
 width="512.000000pt" height="512.000000pt" viewBox="0 0 512.000000 512.000000"
 preserveAspectRatio="xMidYMid meet">
<metadata>
Created by potrace 1.11, written by Peter Selinger 2001-2013
</metadata>
<g transform="translate(0.000000,512.000000) scale(0.100000,-0.100000)"
fill="#000000" stroke="none">
<path d="M1530 5032 l-43 -38 -63 -427 c-34 -235 -68 -480 -74 -545 -12 -125
-64 -489 -160 -1134 -33 -218 -57 -405 -53 -415 12 -36 46 -63 78 -63 18 0 85
25 156 59 239 114 421 160 660 168 371 12 709 -71 959 -236 77 -50 205 -175
253 -245 180 -265 201 -621 54 -903 -100 -194 -377 -405 -650 -497 -149 -49
-229 -61 -407 -60 -143 1 -178 5 -261 27 -174 46 -312 110 -459 215 -89 63
-249 219 -327 320 l-65 83 -56 -3 c-82 -4 -84 -10 -128 -298 -50 -324 -51
-347 -24 -401 99 -194 568 -427 1075 -535 154 -32 420 -44 582 -25 468 55 900
264 1209 582 109 113 168 190 240 311 214 362 260 845 118 1238 -101 281 -292
516 -571 700 -232 153 -376 203 -783 270 -296 49 -424 91 -567 186 -197 131
-313 327 -313 529 0 228 145 440 388 568 323 170 697 180 1020 27 138 -66 252
-157 330 -265 44 -60 49 -65 84 -65 78 0 159 154 322 613 67 188 69 216 22
263 l-34 34 -1235 0 -1234 0 -43 -38z"/>
</g>
</svg>
